<?xml version="1.0" encoding="utf-8"?>
<!-- Generator: Adobe Illustrator 25.1.0, SVG Export Plug-In . SVG Version: 6.00 Build 0)  -->
<svg version="1.0" id="Layer_1" xmlns="http://www.w3.org/2000/svg" xmlns:xlink="http://www.w3.org/1999/xlink" x="0px" y="0px"
	 viewBox="0 0 256 256" style="enable-background:new 0 0 256 256;" xml:space="preserve">
<style type="text/css">
	.st0{fill:#5EAF30;}
</style>
<g>
	<path class="st0" d="M128,0C57.4,0,0,57.4,0,128s57.4,128,128,128s128-57.4,128-128S198.6,0,128,0z M128,236.3
		c-59.7,0-108.3-48.6-108.3-108.3C19.7,68.3,68.3,19.7,128,19.7S236.3,68.3,236.3,128C236.3,187.7,187.7,236.3,128,236.3z"/>
	<path class="st0" d="M209.6,92.4c-1.9-2.4-4.7-3.8-7.8-3.8H143c-0.1,0-0.3,0-0.4,0H87.8l-7-7c-3.8-3.8-10.1-3.8-13.9,0
		c-3.8,3.8-3.8,10.1,0,13.9l5.9,5.9l-18.3,73.4c-1.3,5.3,1.9,10.6,7.2,11.9c5.3,1.3,10.6-1.9,11.9-7.2l17.8-71.3h38.8l-16.6,66.5
		c-1.3,5.3,1.9,10.6,7.2,11.9c5.3,1.3,10.6-1.9,11.9-7.2l17.8-71.3h38.8l-16.6,66.5c-1.3,5.3,1.9,10.6,7.2,11.9
		c0.8,0.2,1.6,0.3,2.4,0.3c4.4,0,8.4-3,9.5-7.5l19.7-78.8C212.1,97.9,211.5,94.8,209.6,92.4z"/>
</g>
<g>
</g>
<g>
</g>
<g>
</g>
<g>
</g>
<g>
</g>
<g>
</g>
<g>
</g>
<g>
</g>
<g>
</g>
<g>
</g>
<g>
</g>
<g>
</g>
<g>
</g>
<g>
</g>
<g>
</g>
</svg>
