<?xml version="1.0" encoding="utf-8"?>
<!-- Generator: Adobe Illustrator 25.1.0, SVG Export Plug-In . SVG Version: 6.00 Build 0)  -->
<svg version="1.1" id="Layer_1" xmlns="http://www.w3.org/2000/svg" xmlns:xlink="http://www.w3.org/1999/xlink" x="0px" y="0px"
	 viewBox="0 0 1190.6 841.9" style="enable-background:new 0 0 1190.6 841.9;" xml:space="preserve">
<style type="text/css">
	.st0{fill:#5FB02F;}
</style>
<g>
	<g>
		<path class="st0" d="M230.8,339.6c-44.8,0-81.3,36.5-81.3,81.3s36.5,81.3,81.3,81.3s81.3-36.5,81.3-81.3S275.6,339.6,230.8,339.6z
			 M230.8,489.7c-37.9,0-68.8-30.9-68.8-68.8c0-37.9,30.9-68.8,68.8-68.8s68.8,30.9,68.8,68.8C299.6,458.9,268.7,489.7,230.8,489.7z
			"/>
		<path class="st0" d="M282.6,398.3c-1.2-1.5-3-2.4-4.9-2.4h-37.4c-0.1,0-0.2,0-0.3,0h-34.8l-4.4-4.4c-2.4-2.4-6.4-2.4-8.8,0
			c-2.4,2.4-2.4,6.4,0,8.8l3.8,3.8l-11.7,46.6c-0.8,3.4,1.2,6.7,4.6,7.6c3.4,0.8,6.7-1.2,7.6-4.6l11.3-45.3h24.6l-10.6,42.3
			c-0.8,3.4,1.2,6.7,4.6,7.6c3.4,0.8,6.7-1.2,7.6-4.6l11.3-45.3h24.6l-10.6,42.3c-0.8,3.4,1.2,6.7,4.6,7.6c0.5,0.1,1,0.2,1.5,0.2
			c2.8,0,5.4-1.9,6.1-4.7l12.5-50C284.2,401.8,283.8,399.8,282.6,398.3z"/>
	</g>
	<g>
		<path d="M381.2,394.4H375l-0.9-13.9c-0.3-4.9-0.5-10-0.4-13.5l-6,23.8h-6l-6.4-23.9c0.2,4.5,0.1,9-0.2,13.8l-0.8,13.7h-6.1
			l2.6-33.2h8.2l5.9,23.2l5.6-23.2h8.3L381.2,394.4z"/>
		<path d="M407.6,383.6h-15.9c0.5,5.2,2.9,6.9,6.2,6.9c2.3,0,4.1-0.7,6.3-2.3l2.5,3.5c-2.5,2-5.6,3.4-9.4,3.4
			c-7.9,0-12.1-5.2-12.1-13.2c0-7.7,4.1-13.6,11.3-13.6c7.1,0,11.2,4.8,11.2,12.8C407.7,382,407.6,383,407.6,383.6z M401.6,379.4
			c0-4.2-1.5-6.7-4.9-6.7c-2.9,0-4.7,1.9-5,7h10V379.4z"/>
		<path d="M433.5,376v18.4h-6.1V377c0-3.2-1.2-4.1-3.1-4.1c-2.2,0-3.8,1.5-5.3,3.8v17.7h-6.1V369h5.3l0.5,3.4c2-2.5,4.5-4.1,7.7-4.1
			C430.8,368.3,433.5,371.2,433.5,376z"/>
		<path d="M460.4,376v18.4h-6.1V377c0-3.2-1.2-4.1-3.1-4.1c-2.2,0-3.8,1.5-5.3,3.8v17.7h-6.1v-35.5l6.1-0.6v13.8
			c1.9-2.4,4.4-3.8,7.4-3.8C457.7,368.3,460.4,371.2,460.4,376z"/>
		<path d="M487.6,383.6h-15.9c0.5,5.2,2.9,6.9,6.2,6.9c2.3,0,4.1-0.7,6.3-2.3l2.5,3.5c-2.5,2-5.6,3.4-9.4,3.4
			c-7.9,0-12.1-5.2-12.1-13.2c0-7.7,4.1-13.6,11.3-13.6c7.1,0,11.2,4.8,11.2,12.8C487.7,382,487.6,383,487.6,383.6z M481.6,379.4
			c0-4.2-1.5-6.7-4.9-6.7c-2.9,0-4.7,1.9-5,7h10V379.4z"/>
		<path d="M507.8,368.7l-1.1,6c-0.8-0.2-1.4-0.3-2.3-0.3c-3.1,0-4.7,2.3-5.6,6.6v13.5h-6.1V369h5.3l0.6,5c1.2-3.6,3.6-5.7,6.6-5.7
			C506.1,368.4,506.9,368.5,507.8,368.7z"/>
		<path d="M531.9,391l-1.3,4.1c-2.8-0.2-4.6-1.2-5.6-3.7c-1.8,2.7-4.6,3.8-7.6,3.8c-5.1,0-8.2-3.2-8.2-7.8c0-5.5,4.2-8.5,11.6-8.5
			h3.2v-1.4c0-3.3-1.5-4.4-4.8-4.4c-1.7,0-4.2,0.5-6.7,1.3l-1.4-4.2c3.1-1.2,6.3-1.8,9.2-1.8c6.8,0,9.7,3.1,9.7,8.7v10.7
			C530,389.8,530.7,390.5,531.9,391z M524,387.6v-5.1h-2.5c-4,0-6,1.4-6,4.4c0,2.4,1.2,3.8,3.6,3.8
			C521.2,390.7,522.8,389.6,524,387.6z"/>
		<path class="st0" d="M543.7,391.3c0,2.1-1.7,3.9-3.9,3.9c-2.2,0-3.8-1.8-3.8-3.9c0-2.2,1.7-3.9,3.8-3.9
			C541.9,387.4,543.7,389.1,543.7,391.3z"/>
		<path class="st0" d="M570.5,381.7c0,8-4.5,13.4-12,13.4s-12-5.1-12-13.4c0-8,4.5-13.4,12-13.4
			C566.1,368.3,570.5,373.4,570.5,381.7z M553.1,381.7c0,6.1,1.9,8.8,5.5,8.8c3.6,0,5.5-2.7,5.5-8.8c0-6-1.9-8.7-5.4-8.7
			C555,373,553.1,375.7,553.1,381.7z"/>
		<path class="st0" d="M590.6,368.7l-1.1,6c-0.8-0.2-1.4-0.3-2.3-0.3c-3.1,0-4.7,2.3-5.6,6.6v13.5h-6.1V369h5.3l0.6,5
			c1.2-3.6,3.6-5.7,6.6-5.7C589,368.4,589.8,368.5,590.6,368.7z"/>
		<path class="st0" d="M616.5,370.4c-1.9,0.7-4.3,0.9-7.3,0.9c3.1,1.4,4.6,3.4,4.6,6.5c0,4.9-3.8,8.5-10.2,8.5c-1.1,0-2.1-0.1-3-0.4
			c-0.6,0.4-1.1,1.1-1.1,1.9c0,0.9,0.5,1.8,3.1,1.8h3.9c5.6,0,9.3,3,9.3,7.2c0,5.1-4.4,8.1-12.7,8.1c-9,0-11.6-2.9-11.6-8h5.5
			c0,2.5,1.1,3.6,6.1,3.6c4.9,0,6.4-1.3,6.4-3.4c0-1.9-1.5-3-4.3-3h-3.8c-5.1,0-7.2-2.3-7.2-4.9c0-1.8,1.1-3.6,3-4.7
			c-3.1-1.6-4.5-3.9-4.5-7.2c0-5.5,4.4-9.1,10.5-9.1c6,0.1,8.8-1.2,11.9-2.8L616.5,370.4z M598.7,377.3c0,3.1,1.7,5,4.5,5
			c2.9,0,4.5-1.8,4.5-5c0-3.2-1.5-4.8-4.6-4.8C600.4,372.5,598.7,374.4,598.7,377.3z"/>
		<path d="M385.6,443.1v3.8h-37.3v-3.8h16.6v-9.7h-12v-3.7h12v-8.4h-9.3c-1.3,2.5-2.7,4.7-4.2,6.5c-0.8-0.7-2.5-1.8-3.6-2.4
			c3.4-3.6,6-9.3,7.6-15.2l4,0.9c-0.6,2.1-1.4,4.3-2.2,6.3h7.6v-7.8h4v7.8h14.6v3.8H369v8.4H382v3.7H369v9.7H385.6z"/>
		<path d="M396.9,428.9c-1.7-1.2-5.2-3.2-7.7-4.5l2.1-2.9c2.4,1.2,6,3,7.7,4.2L396.9,428.9z M390,445c2.2-3.2,5.5-8.5,7.9-13.3
			l2.8,2.6c-2.1,4.3-5,9.4-7.4,13.3L390,445z M398.9,417.6c-1.7-1.2-5.2-3.2-7.7-4.6l2.2-2.8c2.4,1.2,6,3.1,7.8,4.2L398.9,417.6z
			 M416.4,425.5v6.2h8.7v16.2h-3.7v-1.6h-13.9v1.8h-3.6v-16.4h8.8v-6.2H401v-3.7h11.7v-6c-2.9,0.5-6,0.8-8.7,1
			c-0.2-0.9-0.7-2.4-1.1-3.3c7.2-0.8,15.3-2.1,20-3.8l3.1,3c-2.7,1-6,1.8-9.5,2.4v6.6h11.1v3.7H416.4z M421.3,435.3h-13.9v7.6h13.9
			V435.3z"/>
		<path d="M430.7,428.5c0.9-2.9,1.6-7.5,1.8-10.8l2.8,0.3c-0.1,3.3-0.8,8.2-1.7,11.4L430.7,428.5z M441.6,422.7
			c-0.4-1.5-1.3-3.9-2.1-5.9v31.3h-3.6v-38.5h3.6v6.8l2.4-1c0.8,1.9,1.9,4.4,2.4,5.9L441.6,422.7z M469.6,422.9v2.9h-27.2v-2.9h11.5
			v-2.4h-9.2v-2.7h9.2v-2.2h-10.2v-2.9h10.2v-3.1h3.9v3.1h10.6v2.9h-10.6v2.2h9.5v2.7h-9.5v2.4H469.6z M466.6,444.1
			c0,1.8-0.4,2.8-1.6,3.3c-1.3,0.5-3.3,0.6-6.2,0.6c-0.2-1-0.7-2.4-1.1-3.4c1.9,0.1,3.9,0.1,4.5,0.1c0.6,0,0.8-0.2,0.8-0.7v-2.3H449
			v6.3h-3.6v-20.2h21.2V444.1z M449,430.8v2.6h13.9v-2.6H449z M462.9,439v-2.6H449v2.6H462.9z"/>
		<path d="M484.8,420.6h7.4v3.3h-3.9l1.8,0.5c-0.7,1.8-1.5,3.6-2.1,5h3.7v3.4h-6.8v3.9h6.3v3.3h-6.3v8.1h-3.7v-8.1h-6.6v-3.3h6.6
			v-3.9h-7v-3.4h3.7c-0.2-1.4-0.8-3.4-1.6-5l1.7-0.5h-4.5v-3.3h7.7v-3.7H475v-3.3h6.2v-3.9h3.7v3.9h5.8v3.3h-5.8V420.6z
			 M484.9,428.9c0.6-1.4,1.3-3.5,1.8-5h-7.3c0.8,1.6,1.5,3.7,1.6,5l-1.4,0.4h6.7L484.9,428.9z M511,426.4c-0.8,5-2.4,9.7-4.7,13.7
			c1.8,2.1,3.9,3.8,6.3,5c-0.8,0.7-2,2.1-2.6,3.1c-2.1-1.3-4.1-2.9-5.8-5c-1.5,1.9-3.2,3.6-5.1,5c-0.5-0.7-1.3-1.6-2.1-2.3v2.2h-3.5
			v-36.7H510v7.9c0,1.8-0.4,2.8-1.8,3.4c-1.4,0.5-3.5,0.5-6.7,0.5c-0.2-1-0.7-2.4-1.2-3.4c2.4,0.1,4.6,0.1,5.3,0
			c0.6,0,0.8-0.2,0.8-0.6v-4.5h-9.5v10.8h11.1l0.6-0.2L511,426.4z M496.8,445.2c1.9-1.3,3.6-3.1,5-5c-2.1-3.3-3.8-7.2-5-11.3V445.2z
			 M500.1,428.8c0.9,2.9,2.2,5.6,3.7,8.1c1.3-2.5,2.3-5.3,3-8.1H500.1z"/>
		<path d="M544.8,432.7c2.4,2.4,5.6,4.6,8.9,5.7c-0.8,0.7-2,2.1-2.5,3c-4-1.8-8.1-5.1-10.6-8.7H528c-1,1.5-2.3,2.9-3.7,4.2h7.7v-3.2
			h3.9v3.2h8.3v3.1H536v3.7h14.1v3.2h-31.6v-3.2H532V440h-8v-2.8c-2.1,1.9-4.5,3.5-6.9,4.6c-0.5-0.9-1.7-2.3-2.5-3
			c3.3-1.3,6.7-3.6,9.1-6.2H515v-3.2h8.1v-13H517v-3.2h6.1v-3.7h3.9v3.7h14.3v-3.6h4v3.6h6v3.2h-6v13h7.9v3.2H544.8z M527,416.5v2.4
			h14.3v-2.4H527z M527,424.1h14.3v-2.4H527V424.1z M527,429.5h14.3v-2.5H527V429.5z"/>
		<path d="M563.6,424.4c-0.5,3.7-1.6,7.6-4.4,10.5c-0.5-0.6-1.7-1.7-2.4-2.1c2.3-2.4,3.2-5.3,3.7-8.2l-3.1,0.2l-0.2-3.1l3.5-0.1
			c0-0.4,0-0.8,0-1.3v-7.6h4.6c0.4-1.1,0.9-2.2,1.1-3.1l3.4,0.5c-0.4,0.9-0.8,1.8-1.3,2.6h5.9v8.3l1.8-0.1l-0.1,2.9l-1.8,0.1v6.4
			c0,1.6-0.3,2.5-1.3,3c-1.1,0.5-2.6,0.5-4.9,0.5c-0.1-0.8-0.4-1.9-0.8-2.8H566v-5.8h2.5v5.6c1.1,0,1.9,0,2.2,0
			c0.5,0,0.5-0.1,0.5-0.6V424L563.6,424.4z M590.6,443.8h4.8v3.2h-37.9v-3.2h4.8v-9.1h28.3V443.8z M563.9,421.4l7.4-0.3v-5.8h-7.4v5
			V421.4z M567.4,416c0.8,1.2,1.7,2.9,2.1,3.9l-2.4,1c-0.4-1.1-1.3-2.8-2-4.1L567.4,416z M565.9,443.8h4.5v-6.1h-4.5V443.8z
			 M574,437.7v6.1h4.6v-6.1H574z M577.5,421.6c-0.5-0.7-1.4-1.7-2-2.1c2.9-1.6,3.4-3.7,3.4-5.5v-2.9h11v5.7c0,0.8,0.1,0.9,0.6,0.9
			h1.4c0.6,0,0.8-0.3,0.8-2.9c0.6,0.5,1.9,0.9,2.7,1.1c-0.3,3.7-1.1,4.6-3.1,4.6H590c-2.5,0-3.2-0.8-3.2-3.6v-2.9H582v0.1
			c0,2.6-0.7,5.4-3.8,7.5h11.9l0.6-0.1l2,0.9c-1.1,2.9-2.7,5.1-4.8,6.8c2.2,1,4.9,1.6,7.9,2c-0.8,0.8-1.7,2.1-2.1,3
			c-3.4-0.5-6.3-1.6-8.8-2.9c-2.3,1.2-4.8,2.1-7.6,2.7c-0.3-0.8-1.3-2.3-1.9-2.9c2.4-0.4,4.6-1,6.5-1.8c-1.4-1.3-2.6-2.7-3.5-4.3
			l2.4-0.6h-3.4v-2.7H577.5z M581.6,424.3c0.8,1.3,1.9,2.4,3.3,3.3c1.3-0.9,2.4-2,3.3-3.3H581.6z M582.1,437.7v6.1h4.6v-6.1H582.1z"
			/>
		<path d="M600.1,411.7h14.9v3.5h-6.3c-0.6,3.2-1.4,6.3-2.4,9.2h8.1V443h-8.2v3.2h-3.3V432c-0.6,1-1.3,2-2,2.9c-0.2-1-1-3.4-1.6-4.4
			c2.8-3.7,4.6-9.3,5.7-15.2h-4.9V411.7z M610.9,428h-4.9v11.6h4.9V428z M638.2,430.4h-4.5v17.8h-3.7v-17.8h-6
			c-0.2,6.3-1.3,13.3-5.8,18c-0.7-0.6-2.1-1.8-3-2.3c4-4.2,5-10.3,5.2-15.7h-4.3v-3.7h4.4v-11.3h-3.2v-3.7h20.2v3.7h-3.7v11.3h4.5
			V430.4z M629.9,426.7v-11.3H624v11.3H629.9z"/>
		<path d="M675.1,444c1,0,1.2-0.7,1.4-6.1c0.8,0.7,2.6,1.4,3.7,1.7c-0.4,6.6-1.4,8.2-4.6,8.2h-4.1c-3.6,0-4.7-1.1-4.7-5.2v-7.6h-7.1
			c-0.9,4.9-4.3,10.1-15.5,13.1c-0.6-0.9-1.7-2.4-2.6-3.2c9.7-2.6,13-6.4,14.1-10h-11.1v-3.7h11.6v-4.8h3.9v4.8h10.9v11.2
			c0,1.2,0.2,1.4,1.2,1.4H675.1z M657.7,416.8c-0.9,6.7-3.4,10.6-13.4,12.6c-0.3-0.9-1.3-2.4-2.1-3.2c8.7-1.5,10.6-4.4,11.3-9.5
			h-6.7v4.4H643v-7.9h15.7v-3.8h4v3.8h16v7.5h-4.1v-4h-7.4v6.6c0,1.1,0.2,1.2,1.6,1.2h4.4c1.1,0,1.3-0.4,1.4-3
			c0.8,0.6,2.4,1.2,3.4,1.3c-0.4,4.1-1.5,5.1-4.4,5.1h-5.4c-4,0-5-1.1-5-4.6v-6.6H657.7z"/>
		<path d="M719.3,435.5c-1.2,2.5-2.8,4.7-4.8,6.6c1,1.8,2.3,2.8,3.6,2.8c1.1,0,1.6-0.9,1.8-4.5c0.7,0.7,1.8,1.4,2.6,1.7
			c-0.6,4.7-1.7,6-4.6,6c-2.4,0-4.4-1.4-5.9-3.9c-2.1,1.5-4.3,2.8-6.8,3.8c-0.5-0.7-1.4-1.9-2.1-2.5c2.9-1,5.4-2.4,7.5-4.2
			c-0.9-2.1-1.6-4.6-2.1-7.5h-5.7c-0.1,0.7-0.2,1.4-0.3,2.1c2,1.3,4.2,2.8,5.4,3.9l-2.1,2.7c-0.9-0.9-2.4-2.1-4-3.3
			c-0.9,3.5-2.5,6.6-5.5,8.7c-0.5-0.8-1.5-2.1-2.3-2.6c3.7-2.6,4.8-7,5.3-11.6h-2.8v-2.1l-1.4,2c-0.5-1.3-1.6-3.6-2.6-5.5v19.8h-3.5
			v-17.7c-1.1,3.9-2.5,7.5-4,9.9c-0.4-1-1.3-2.5-1.8-3.3c2.3-3.5,4.4-9.7,5.5-15h-4.6v-3.6h5v-8.9h3.5v8.9h4.2v3.6h-4.2v1.8
			c1,1.5,3.5,5.5,4.3,7h11.2c-0.9-6.1-1.2-13.4-1.3-21.2h3.4c0,2.4,0,4.8,0,7.1l1.3-1.8c0.3,0.2,0.5,0.4,0.8,0.6
			c0.9-1.7,1.8-4,2.4-5.6l3,1.1c-1.2,2.1-2.4,4.4-3.4,6.1c0.5,0.5,1.1,1.1,1.5,1.6c0.9-1.6,1.8-3.2,2.4-4.5l2.8,1.3
			c-1.7,2.9-3.9,6.2-5.8,8.8l3.6-0.3c-0.3-0.7-0.6-1.4-0.9-2.1l2.3-0.9c1.1,2,2.1,4.5,2.4,6.1l-2.4,1.1c-0.1-0.5-0.3-1.1-0.4-1.7
			c-1.5,0.2-2.9,0.3-4.2,0.5c1.4,0.8,3.1,2,3.9,2.9l-0.9,0.8h3.4v3.1h-9.9c0.4,1.8,0.8,3.5,1.3,5c1.2-1.4,2.2-3,2.9-4.6L719.3,435.5
			z M697.3,425.1c0.9-1.1,1.8-2.5,2.7-3.9c-1.1-1.3-2.8-2.9-4.3-4.1l1.6-2.1c0.3,0.2,0.5,0.4,0.8,0.7c0.9-1.8,1.8-4,2.4-5.7l3,1.2
			c-1.1,2.1-2.4,4.4-3.4,6.1c0.5,0.5,1,1.1,1.5,1.5c0.9-1.6,1.8-3.2,2.4-4.5l2.8,1.3c-1.8,3-4.1,6.6-6.1,9.4l3.2-0.2
			c-0.3-0.8-0.6-1.6-0.9-2.3l2.3-0.8c1,1.9,1.9,4.5,2.1,6.1l-2.4,1c0-0.4-0.2-0.9-0.3-1.4c-2.9,0.3-5.6,0.6-8.1,0.8l-0.5-3
			L697.3,425.1z M711.9,424.5c0.8-1,1.6-2.1,2.4-3.4c-1-1.2-2.6-2.8-4.1-3.9c0.1,5,0.5,9.6,1.1,13.6h4.7c-0.8-0.7-1.9-1.5-2.8-2.1
			l1.8-1.6l-3.8,0.4l-0.6-2.9L711.9,424.5z"/>
		<path d="M737.6,434.8c-0.5-1.3-1.8-3.7-2.9-5.6v18.9h-3.6v-17.8c-1.3,4-2.8,7.7-4.5,10.1c-0.4-1-1.3-2.5-1.8-3.4
			c2.5-3.4,4.9-9.7,6-15h-5.1v-3.6h5.5v-8.9h3.6v8.9h4.5v3.6h-4.5v2.5c1.2,1.6,4.3,6.3,5,7.4L737.6,434.8z M764.1,441.4h-2.5v2.8
			c0,1.8-0.4,2.6-1.6,3.2c-1.2,0.5-3.1,0.5-5.8,0.5c-0.2-0.9-0.6-2.3-1-3.2c1.8,0.1,3.6,0.1,4.1,0c0.5,0,0.7-0.2,0.7-0.7v-2.7h-13.1
			v6.5h-3.6v-6.5h-2.7v-2.9h2.7V428h8.2v-2.1h-10.2V423h5.5v-2.4H741v-2.7h3.7v-2.3h-4.6v-2.8h4.6v-3.2h3.7v3.2h5.8v-3.2h3.7v3.2h5
			v2.8h-5v2.3h4.4v2.7h-4.4v2.4h5.8v2.9H753v2.1h8.6v10.5h2.5V441.4z M744.8,430.8v2.4h4.7v-2.4H744.8z M744.8,438.5h4.7v-2.6h-4.7
			V438.5z M748.4,417.9h5.8v-2.3h-5.8V417.9z M748.4,423h5.8v-2.4h-5.8V423z M753,430.8v2.4h5v-2.4H753z M757.9,438.5v-2.6h-5v2.6
			H757.9z"/>
		<path d="M362.4,476.9h-8.9V488h-4.8v-24.9h4.8v10h8.9v-10h4.8V488h-4.8V476.9z"/>
		<path d="M387.5,488h-4l-0.3-2.7c-1.4,2.2-3.2,3.2-5.8,3.2c-3.5,0-5.3-2.2-5.3-5.9V469h4.6v13.1c0,2.2,0.8,3,2.3,3
			c1.5,0,2.8-1,3.9-2.7V469h4.6V488z"/>
		<path d="M417.7,474.2V488h-4.6V475c0-2.4-0.9-3.1-2.1-3.1c-1.6,0-2.6,1.1-3.6,2.9V488h-4.6V475c0-2.4-1-3.1-2.1-3.1
			c-1.6,0-2.6,1.1-3.6,2.9V488h-4.6v-19h4l0.4,2.5c1.4-1.9,3.1-3,5.5-3c2.2,0,3.9,1.2,4.6,3.2c1.4-2,3.2-3.2,5.7-3.2
			C415.7,468.5,417.7,470.6,417.7,474.2z"/>
		<path d="M438.1,485.4l-1,3.1c-2.1-0.2-3.5-0.9-4.2-2.8c-1.3,2-3.4,2.8-5.7,2.8c-3.8,0-6.2-2.4-6.2-5.9c0-4.1,3.1-6.4,8.7-6.4h2.4
			v-1.1c0-2.5-1.1-3.3-3.6-3.3c-1.3,0-3.1,0.4-5,1l-1.1-3.1c2.3-0.9,4.8-1.4,6.9-1.4c5.1,0,7.3,2.3,7.3,6.6v8
			C436.7,484.5,437.2,485.1,438.1,485.4z M432.1,482.9V479h-1.9c-3,0-4.5,1.1-4.5,3.3c0,1.8,0.9,2.9,2.7,2.9
			C430.1,485.2,431.3,484.4,432.1,482.9z"/>
		<path d="M457.2,474.2V488h-4.6V475c0-2.4-0.9-3.1-2.3-3.1c-1.7,0-2.9,1.1-4,2.9V488h-4.6v-19h4l0.4,2.5c1.5-1.9,3.4-3.1,5.8-3.1
			C455.2,468.5,457.2,470.6,457.2,474.2z"/>
		<path d="M461.4,474.9h10.9v3.7h-10.9V474.9z"/>
		<path d="M476.5,483.7v-22.3l4.6-0.5v22.7c0,0.9,0.3,1.3,1.1,1.3c0.4,0,0.8-0.1,1.1-0.2l1,3.2c-0.8,0.4-1.9,0.6-3.1,0.6
			C478.2,488.6,476.5,486.8,476.5,483.7z"/>
		<path d="M492.2,462.2c0,1.5-1.2,2.8-2.9,2.8c-1.7,0-2.9-1.2-2.9-2.8c0-1.6,1.2-2.8,2.9-2.8C491,459.3,492.2,460.6,492.2,462.2z
			 M491.6,488H487v-19h4.6V488z"/>
		<path d="M502,467v2h4.6l-0.5,3.3H502V488h-4.6v-15.7h-3.1V469h3.1v-2.1c0-3.5,2.3-6,6.7-6c1.9,0,3.5,0.4,4.9,1.1l-1.3,3.1
			c-1.2-0.5-2.2-0.7-3.1-0.7C502.7,464.3,502,465.2,502,467z"/>
		<path d="M524.5,479.9h-12c0.4,3.9,2.2,5.1,4.7,5.1c1.7,0,3.1-0.5,4.8-1.7l1.9,2.6c-1.9,1.5-4.2,2.6-7.1,2.6
			c-5.9,0-9.1-3.9-9.1-9.9c0-5.8,3.1-10.2,8.5-10.2c5.3,0,8.4,3.6,8.4,9.6C524.6,478.7,524.5,479.4,524.5,479.9z M520,476.7
			c0-3.1-1.1-5-3.7-5c-2.2,0-3.5,1.4-3.8,5.2h7.5V476.7z"/>
		<path d="M542.7,488H538v-24.9h4.8V488z"/>
		<path d="M563.3,474.2V488h-4.6V475c0-2.4-0.9-3.1-2.3-3.1c-1.7,0-2.9,1.1-4,2.9V488h-4.6v-19h4l0.4,2.5c1.5-1.9,3.4-3.1,5.8-3.1
			C561.3,468.5,563.3,470.6,563.3,474.2z"/>
		<path d="M573.6,467v2h4.6l-0.5,3.3h-4.1V488H569v-15.7h-3.1V469h3.1v-2.1c0-3.5,2.3-6,6.7-6c1.9,0,3.5,0.4,4.9,1.1l-1.3,3.1
			c-1.2-0.5-2.2-0.7-3.1-0.7C574.3,464.3,573.6,465.2,573.6,467z"/>
		<path d="M597.2,478.5c0,6-3.3,10.1-9,10.1s-9-3.8-9-10.1c0-6,3.3-10,9-10C593.9,468.5,597.2,472.3,597.2,478.5z M584.1,478.5
			c0,4.6,1.4,6.6,4.1,6.6s4.1-2.1,4.1-6.6c0-4.5-1.4-6.6-4.1-6.6C585.6,471.9,584.1,474,584.1,478.5z"/>
		<path d="M612.4,468.7l-0.8,4.5c-0.6-0.1-1-0.2-1.7-0.2c-2.3,0-3.5,1.7-4.2,4.9V488h-4.6v-19h4l0.4,3.7c0.9-2.7,2.7-4.2,5-4.2
			C611.2,468.5,611.8,468.6,612.4,468.7z"/>
		<path d="M640.3,474.2V488h-4.6V475c0-2.4-0.9-3.1-2.1-3.1c-1.6,0-2.6,1.1-3.6,2.9V488h-4.6V475c0-2.4-1-3.1-2.1-3.1
			c-1.6,0-2.6,1.1-3.6,2.9V488h-4.6v-19h4l0.4,2.5c1.4-1.9,3.1-3,5.5-3c2.2,0,3.9,1.2,4.6,3.2c1.4-2,3.2-3.2,5.7-3.2
			C638.3,468.5,640.3,470.6,640.3,474.2z"/>
		<path d="M660.8,485.4l-1,3.1c-2.1-0.2-3.5-0.9-4.2-2.8c-1.3,2-3.4,2.8-5.7,2.8c-3.8,0-6.2-2.4-6.2-5.9c0-4.1,3.1-6.4,8.7-6.4h2.4
			v-1.1c0-2.5-1.1-3.3-3.6-3.3c-1.3,0-3.1,0.4-5,1l-1.1-3.1c2.3-0.9,4.8-1.4,6.9-1.4c5.1,0,7.3,2.3,7.3,6.6v8
			C659.3,484.5,659.8,485.1,660.8,485.4z M654.8,482.9V479h-1.9c-3,0-4.5,1.1-4.5,3.3c0,1.8,0.9,2.9,2.7,2.9
			C652.7,485.2,653.9,484.4,654.8,482.9z"/>
		<path d="M675.4,487.1c-1.4,1-3.1,1.4-4.8,1.4c-3.7,0-5.7-2.2-5.7-6.2v-10h-3V469h3v-4.2l4.6-0.5v4.8h4.4l-0.5,3.3h-4v9.9
			c0,1.9,0.6,2.6,2,2.6c0.7,0,1.4-0.2,2.3-0.7L675.4,487.1z"/>
		<path d="M683.2,462.2c0,1.5-1.2,2.8-2.9,2.8c-1.7,0-2.9-1.2-2.9-2.8c0-1.6,1.2-2.8,2.9-2.8C682,459.3,683.2,460.6,683.2,462.2z
			 M682.6,488H678v-19h4.6V488z"/>
		<path d="M704.3,478.5c0,6-3.3,10.1-9,10.1s-9-3.8-9-10.1c0-6,3.3-10,9-10C701,468.5,704.3,472.3,704.3,478.5z M691.2,478.5
			c0,4.6,1.4,6.6,4.1,6.6c2.7,0,4.1-2.1,4.1-6.6c0-4.5-1.4-6.6-4.1-6.6C692.7,471.9,691.2,474,691.2,478.5z"/>
		<path d="M723.8,474.2V488h-4.6V475c0-2.4-0.9-3.1-2.3-3.1c-1.7,0-2.9,1.1-4,2.9V488h-4.6v-19h4l0.4,2.5c1.5-1.9,3.4-3.1,5.8-3.1
			C721.8,468.5,723.8,470.6,723.8,474.2z"/>
		<path d="M755.7,471.1c0,5.7-4.1,8.3-9.8,8.3H743v8.7h-4.8v-24.9h7.3C751.9,463.2,755.7,465.7,755.7,471.1z M750.7,471.1
			c0-3.1-1.9-4.4-5.1-4.4H743v9.1h2.6C748.7,475.8,750.7,474.7,750.7,471.1z"/>
		<path d="M758.7,483.7v-22.3l4.6-0.5v22.7c0,0.9,0.3,1.3,1.1,1.3c0.4,0,0.8-0.1,1.1-0.2l1,3.2c-0.8,0.4-1.9,0.6-3.1,0.6
			C760.5,488.6,758.7,486.8,758.7,483.7z"/>
		<path d="M785,485.4l-1,3.1c-2.1-0.2-3.5-0.9-4.2-2.8c-1.3,2-3.4,2.8-5.7,2.8c-3.8,0-6.2-2.4-6.2-5.9c0-4.1,3.1-6.4,8.7-6.4h2.4
			v-1.1c0-2.5-1.1-3.3-3.6-3.3c-1.3,0-3.1,0.4-5,1l-1.1-3.1c2.3-0.9,4.8-1.4,6.9-1.4c5.1,0,7.3,2.3,7.3,6.6v8
			C783.6,484.5,784.1,485.1,785,485.4z M779,482.9V479h-1.9c-3,0-4.5,1.1-4.5,3.3c0,1.8,0.9,2.9,2.7,2.9
			C777,485.2,778.2,484.4,779,482.9z"/>
		<path d="M799.7,487.1c-1.4,1-3.1,1.4-4.8,1.4c-3.7,0-5.7-2.2-5.7-6.2v-10h-3V469h3v-4.2l4.6-0.5v4.8h4.4l-0.5,3.3h-4v9.9
			c0,1.9,0.6,2.6,2,2.6c0.7,0,1.4-0.2,2.3-0.7L799.7,487.1z"/>
		<path d="M808,467v2h4.6l-0.5,3.3H808V488h-4.6v-15.7h-3.1V469h3.1v-2.1c0-3.5,2.3-6,6.7-6c1.9,0,3.5,0.4,4.9,1.1l-1.3,3.1
			c-1.2-0.5-2.2-0.7-3.1-0.7C808.6,464.3,808,465.2,808,467z"/>
		<path d="M831.6,478.5c0,6-3.3,10.1-9,10.1s-9-3.8-9-10.1c0-6,3.3-10,9-10C828.3,468.5,831.6,472.3,831.6,478.5z M818.5,478.5
			c0,4.6,1.4,6.6,4.1,6.6c2.7,0,4.1-2.1,4.1-6.6c0-4.5-1.4-6.6-4.1-6.6C819.9,471.9,818.5,474,818.5,478.5z"/>
		<path d="M846.8,468.7l-0.8,4.5c-0.6-0.1-1-0.2-1.7-0.2c-2.3,0-3.5,1.7-4.2,4.9V488h-4.6v-19h4l0.4,3.7c0.9-2.7,2.7-4.2,5-4.2
			C845.6,468.5,846.2,468.6,846.8,468.7z"/>
		<path d="M874.7,474.2V488h-4.6V475c0-2.4-0.9-3.1-2.1-3.1c-1.6,0-2.6,1.1-3.6,2.9V488h-4.6V475c0-2.4-1-3.1-2.1-3.1
			c-1.6,0-2.6,1.1-3.6,2.9V488h-4.6v-19h4l0.4,2.5c1.4-1.9,3.1-3,5.5-3c2.2,0,3.9,1.2,4.6,3.2c1.4-2,3.2-3.2,5.7-3.2
			C872.7,468.5,874.7,470.6,874.7,474.2z"/>
		<path d="M892.6,470.7l-1.8,2.7c-1.6-1-3.1-1.5-4.8-1.5c-1.8,0-2.9,0.8-2.9,1.9c0,1.3,0.8,1.8,4,2.7c3.9,1,6.1,2.6,6.1,6
			c0,4-3.7,6-8,6c-3.3,0-5.8-1.1-7.6-2.7l2.3-2.6c1.5,1.1,3.2,1.9,5.2,1.9c2.1,0,3.4-0.9,3.4-2.3c0-1.6-0.8-2.1-4.3-3.1
			c-3.9-1.1-5.7-3-5.7-5.8c0-3.2,2.9-5.5,7.3-5.5C888.6,468.5,890.8,469.3,892.6,470.7z"/>
		<path d="M910.9,488h-4.8v-24.9h4.8V488z"/>
		<path d="M931.4,474.2V488h-4.6V475c0-2.4-0.9-3.1-2.3-3.1c-1.7,0-2.9,1.1-4,2.9V488h-4.6v-19h4l0.4,2.5c1.5-1.9,3.4-3.1,5.8-3.1
			C929.4,468.5,931.4,470.6,931.4,474.2z"/>
		<path d="M949.3,470.7l-1.8,2.7c-1.6-1-3.1-1.5-4.8-1.5c-1.8,0-2.9,0.8-2.9,1.9c0,1.3,0.8,1.8,4,2.7c3.9,1,6.1,2.6,6.1,6
			c0,4-3.7,6-8,6c-3.3,0-5.8-1.1-7.6-2.7l2.3-2.6c1.5,1.1,3.2,1.9,5.2,1.9c2.1,0,3.4-0.9,3.4-2.3c0-1.6-0.8-2.1-4.3-3.1
			c-3.9-1.1-5.7-3-5.7-5.8c0-3.2,2.9-5.5,7.3-5.5C945.2,468.5,947.5,469.3,949.3,470.7z"/>
		<path d="M965,487.1c-1.4,1-3.1,1.4-4.8,1.4c-3.7,0-5.7-2.2-5.7-6.2v-10h-3V469h3v-4.2l4.6-0.5v4.8h4.4l-0.5,3.3h-4v9.9
			c0,1.9,0.6,2.6,2,2.6c0.7,0,1.4-0.2,2.3-0.7L965,487.1z"/>
		<path d="M972.7,462.2c0,1.5-1.2,2.8-2.9,2.8c-1.7,0-2.9-1.2-2.9-2.8c0-1.6,1.2-2.8,2.9-2.8C971.5,459.3,972.7,460.6,972.7,462.2z
			 M972.1,488h-4.6v-19h4.6V488z"/>
		<path d="M988.4,487.1c-1.4,1-3.1,1.4-4.8,1.4c-3.7,0-5.7-2.2-5.7-6.2v-10h-3V469h3v-4.2l4.6-0.5v4.8h4.4l-0.5,3.3h-4v9.9
			c0,1.9,0.6,2.6,2,2.6c0.7,0,1.4-0.2,2.3-0.7L988.4,487.1z"/>
		<path d="M1005.8,488h-4l-0.3-2.7c-1.4,2.2-3.2,3.2-5.8,3.2c-3.5,0-5.3-2.2-5.3-5.9V469h4.6v13.1c0,2.2,0.8,3,2.3,3
			c1.5,0,2.8-1,3.9-2.7V469h4.6V488z"/>
		<path d="M1022,487.1c-1.4,1-3.1,1.4-4.8,1.4c-3.7,0-5.7-2.2-5.7-6.2v-10h-3V469h3v-4.2l4.6-0.5v4.8h4.4l-0.5,3.3h-4v9.9
			c0,1.9,0.6,2.6,2,2.6c0.7,0,1.4-0.2,2.3-0.7L1022,487.1z"/>
		<path d="M1039.5,479.9h-12c0.4,3.9,2.2,5.1,4.7,5.1c1.7,0,3.1-0.5,4.8-1.7l1.9,2.6c-1.9,1.5-4.2,2.6-7.1,2.6
			c-5.9,0-9.1-3.9-9.1-9.9c0-5.8,3.1-10.2,8.5-10.2c5.3,0,8.4,3.6,8.4,9.6C1039.6,478.7,1039.5,479.4,1039.5,479.9z M1035,476.7
			c0-3.1-1.1-5-3.7-5c-2.2,0-3.5,1.4-3.8,5.2h7.5V476.7z"/>
	</g>
</g>
</svg>
