<?xml version="1.0" encoding="utf-8"?>
<!-- Generator: Adobe Illustrator 25.1.0, SVG Export Plug-In . SVG Version: 6.00 Build 0)  -->
<svg version="1.0" id="Layer_1" xmlns="http://www.w3.org/2000/svg" xmlns:xlink="http://www.w3.org/1999/xlink" x="0px" y="0px"
	 viewBox="0 0 1920 480" style="enable-background:new 0 0 1920 480;" xml:space="preserve">
<style type="text/css">
	.st0{fill:#5EAF30;}
	.st1{fill:#1A140F;}
	.st2{fill:#5EAF30;}
</style>
<g>
	<g>
		<path class="st0" d="M244.9,55.1C142.9,55.1,60,138.1,60,240s82.9,184.9,184.9,184.9S429.7,341.9,429.7,240S346.8,55.1,244.9,55.1
			z M244.9,396.4c-86.3,0-156.4-70.2-156.4-156.4c0-86.3,70.2-156.4,156.4-156.4S401.3,153.7,401.3,240
			C401.3,326.3,331.1,396.4,244.9,396.4z"/>
		<path class="st0" d="M362.7,188.6c-2.7-3.5-6.8-5.5-11.2-5.5h-85c-0.2,0-0.4,0-0.6,0h-79.1l-10.1-10.1c-5.6-5.6-14.6-5.6-20.1,0
			c-5.6,5.6-5.6,14.6,0,20.1l8.5,8.5l-26.5,106c-1.9,7.6,2.7,15.3,10.3,17.2c7.6,1.9,15.3-2.7,17.2-10.3l25.7-103h56l-24,96.1
			c-1.9,7.6,2.7,15.3,10.3,17.2c7.6,1.9,15.3-2.7,17.2-10.3l25.7-103h56l-24,96.1c-1.9,7.6,2.7,15.3,10.3,17.2
			c1.2,0.3,2.3,0.4,3.5,0.4c6.4,0,12.2-4.3,13.8-10.8l28.4-113.8C366.4,196.5,365.4,192,362.7,188.6z"/>
	</g>
	<g>
		<path class="st1" d="M586.8,179.7h-14.1l-2-31.5c-0.7-11.1-1.2-22.8-1-30.8L556,171.5h-13.6l-14.6-54.2
			c0.4,10.1,0.2,20.5-0.4,31.3l-1.9,31.1h-14l6-75.4h18.6l13.4,52.8l12.7-52.8h18.8L586.8,179.7z"/>
		<path class="st1" d="M646.1,155.2h-36.2c1.1,11.8,6.5,15.6,14.2,15.6c5.1,0,9.4-1.6,14.4-5.1l5.8,8c-5.7,4.6-12.7,7.7-21.4,7.7
			c-17.9,0-27.5-11.9-27.5-30.1c0-17.6,9.3-30.9,25.6-30.9c16.2,0,25.4,10.9,25.4,29.1C646.4,151.4,646.2,153.6,646.1,155.2z
			 M632.6,145.5c0-9.5-3.4-15.2-11.2-15.2c-6.5,0-10.7,4.4-11.5,15.8h22.7V145.5z"/>
		<path class="st1" d="M704.1,137.9v41.8h-14v-39.6c0-7.2-2.7-9.3-7.1-9.3c-5,0-8.7,3.4-12.1,8.7v40.2h-14V122h12.1l1.1,7.6
			c4.5-5.8,10.3-9.3,17.6-9.3C698.1,120.4,704.1,126.9,704.1,137.9z"/>
		<path class="st1" d="M764.6,137.9v41.8h-14v-39.6c0-7.2-2.8-9.3-7.1-9.3c-4.9,0-8.7,3.4-12.1,8.6v40.3h-14V99l14-1.4V129
			c4.4-5.5,9.9-8.6,16.8-8.6C758.5,120.4,764.6,127,764.6,137.9z"/>
		<path class="st1" d="M825.5,155.2h-36.2c1.1,11.8,6.5,15.6,14.2,15.6c5.1,0,9.4-1.6,14.4-5.1l5.8,8c-5.7,4.6-12.7,7.7-21.4,7.7
			c-17.9,0-27.5-11.9-27.5-30.1c0-17.6,9.3-30.9,25.6-30.9c16.2,0,25.4,10.9,25.4,29.1C825.9,151.4,825.6,153.6,825.5,155.2z
			 M812,145.5c0-9.5-3.4-15.2-11.2-15.2c-6.5,0-10.7,4.4-11.5,15.8H812V145.5z"/>
		<path class="st1" d="M870.7,121.2l-2.4,13.5c-1.7-0.4-3.2-0.7-5.1-0.7c-7.1,0-10.6,5.1-12.8,15v30.7h-14V122h12.1l1.3,11.3
			c2.7-8.3,8.3-12.9,15.1-12.9C866.9,120.5,868.8,120.7,870.7,121.2z"/>
		<path class="st1" d="M924.9,171.9l-2.9,9.3c-6.3-0.5-10.5-2.7-12.8-8.4c-4,6.1-10.4,8.6-17.2,8.6c-11.6,0-18.7-7.3-18.7-17.8
			c0-12.5,9.5-19.3,26.3-19.3h7.2V141c0-7.5-3.4-10-10.8-10c-3.9,0-9.5,1.1-15.3,3.1l-3.3-9.5c7.1-2.7,14.4-4.1,21-4.1
			c15.4,0,22.2,7.1,22.2,19.9v24.2C920.5,169.1,922,170.8,924.9,171.9z M906.8,164.1v-11.7H901c-9.1,0-13.5,3.3-13.5,10
			c0,5.6,2.8,8.7,8.2,8.7C900.5,171.2,904.1,168.7,906.8,164.1z"/>
		<path class="st2" d="M950.9,172.5c0,4.8-3.9,8.8-8.9,8.8c-4.9,0-8.7-4-8.7-8.8c0-4.9,3.8-8.8,8.7-8.8
			C946.9,163.7,950.9,167.6,950.9,172.5z"/>
		<path class="st2" d="M1011.1,150.8c0,18.2-10.1,30.6-27.2,30.6s-27.2-11.6-27.2-30.6c0-18.1,10.1-30.4,27.3-30.4
			C1001.1,120.4,1011.1,131.9,1011.1,150.8z M971.5,150.8c0,13.9,4.3,20,12.4,20s12.4-6.2,12.4-20c0-13.8-4.3-19.9-12.3-19.9
			C975.9,130.9,971.5,137.2,971.5,150.8z"/>
		<path class="st2" d="M1056,121.2l-2.4,13.5c-1.7-0.4-3.2-0.7-5.1-0.7c-7.1,0-10.6,5.1-12.8,15v30.7h-14V122h12.1l1.3,11.3
			c2.7-8.3,8.3-12.9,15.1-12.9C1052.3,120.5,1054.2,120.7,1056,121.2z"/>
		<path class="st2" d="M1114.1,125.1c-4.4,1.5-9.8,2-16.7,2c7,3.2,10.5,7.6,10.5,14.8c0,11.2-8.7,19.4-23.2,19.4
			c-2.5,0-4.7-0.2-6.9-0.9c-1.4,1-2.4,2.5-2.4,4.3c0,2.1,1.2,4,7,4h8.8c12.8,0,21.1,6.9,21.1,16.4c0,11.6-9.9,18.4-28.8,18.4
			c-20.5,0-26.3-6.5-26.3-18.1h12.6c0,5.8,2.5,8.3,14,8.3c11.2,0,14.5-3.1,14.5-7.6c0-4.3-3.4-6.9-9.8-6.9h-8.7
			c-11.6,0-16.5-5.1-16.5-11.1c0-4,2.5-8.1,6.8-10.7c-7.1-3.7-10.1-8.8-10.1-16.3c0-12.6,9.9-20.7,23.9-20.7c13.6,0.3,20-2.7,27-6.4
			L1114.1,125.1z M1073.8,140.9c0,7,3.8,11.3,10.3,11.3c6.7,0,10.3-4.1,10.3-11.5c0-7.3-3.5-10.9-10.5-10.9
			C1077.5,129.9,1073.8,134.2,1073.8,140.9z"/>
		<path class="st1" d="M596.8,290.3v8.6H512v-8.6h37.8v-22h-27.2v-8.5h27.2v-19.1h-21.2c-3,5.7-6.1,10.8-9.5,14.8
			c-1.8-1.5-5.7-4.1-8.1-5.3c7.7-8.1,13.8-21.2,17.3-34.6l9.2,2.1c-1.4,4.9-3.2,9.7-5,14.3h17.3v-17.8h9.2v17.8h33.2v8.7H559v19.1
			h29.7v8.5H559v22H596.8z"/>
		<path class="st1" d="M621.6,258.1c-3.9-2.7-11.8-7.3-17.6-10.2l4.9-6.6c5.4,2.7,13.6,6.9,17.6,9.5L621.6,258.1z M605.9,294.7
			c5.1-7.2,12.4-19.4,18-30.2l6.4,5.9c-4.9,9.8-11.3,21.3-16.9,30.2L605.9,294.7z M626.1,232.3c-3.9-2.8-11.8-7.4-17.5-10.5l5-6.3
			c5.5,2.7,13.7,7,17.8,9.6L626.1,232.3z M665.8,250.4v14.1h19.7v36.8h-8.4v-3.5h-31.6v4h-8.1v-37.2h20.1v-14.1h-26.5v-8.5h26.5
			v-13.6c-6.7,1.1-13.6,1.8-19.9,2.3c-0.4-2.1-1.5-5.4-2.6-7.4c16.3-1.7,34.9-4.8,45.4-8.7l7,6.9c-6.1,2.3-13.6,4.1-21.5,5.5v15
			h25.3v8.5H665.8z M677.1,272.5h-31.6v17.2h31.6V272.5z"/>
		<path class="st1" d="M697.5,257.3c2-6.5,3.5-17.1,4.1-24.5l6.4,0.8c-0.3,7.5-1.8,18.7-3.8,25.9L697.5,257.3z M722.3,244
			c-1-3.3-3-9-4.9-13.4v71.1h-8.1v-87.5h8.1v15.6l5.5-2.2c1.9,4.3,4.4,9.9,5.3,13.5L722.3,244z M786,244.6v6.6h-61.9v-6.6h26.2V239
			h-21v-6.2h21v-5H727v-6.6h23.3v-7.1h8.8v7.1h24.2v6.6h-24.2v5h21.7v6.2h-21.7v5.5H786z M779,292.7c0,4-0.9,6.3-3.7,7.5
			c-3,1.2-7.4,1.3-14,1.3c-0.4-2.2-1.5-5.5-2.6-7.6c4.4,0.3,9,0.2,10.2,0.2c1.3-0.1,1.7-0.5,1.7-1.6v-5.2H739v14.4h-8.2v-45.9H779
			V292.7z M739,262.5v5.9h31.6v-5.9H739z M770.6,280.9V275H739v5.9H770.6z"/>
		<path class="st1" d="M819.5,239.1h16.7v7.5h-8.9l4.1,1.1c-1.6,4-3.3,8.2-4.9,11.3h8.5v7.6h-15.6v9h14.3v7.5h-14.3v18.4h-8.3v-18.4
			h-15v-7.5h15v-9h-15.9V259h8.3c-0.5-3.2-1.9-7.7-3.6-11.3l3.9-1.1h-10.2v-7.5h17.5v-8.3h-14v-7.4h14v-9h8.3v9h13.2v7.4h-13.2
			V239.1z M819.7,258.1c1.3-3.2,3.1-8,4-11.5h-16.5c1.7,3.7,3.3,8.4,3.7,11.5l-3.2,0.9H823L819.7,258.1z M879,252.3
			c-1.9,11.4-5.5,22.1-10.8,31.1c4.1,4.8,8.9,8.7,14.2,11.4c-1.9,1.6-4.6,4.9-5.9,7.1c-4.9-2.9-9.3-6.7-13.2-11.3
			c-3.3,4.4-7.3,8.2-11.6,11.4c-1.1-1.6-3.1-3.7-4.9-5.2v5.1h-8v-83.5h38v18c0,4.1-0.9,6.4-4.2,7.6c-3.2,1.2-8,1.2-15.2,1.2
			c-0.4-2.3-1.5-5.5-2.7-7.6c5.4,0.2,10.5,0.2,11.9,0.1c1.4-0.1,1.8-0.4,1.8-1.4v-10.1h-21.7v24.4h25.3l1.4-0.4L879,252.3z
			 M846.8,295.2c4.4-3.1,8.1-7,11.4-11.5c-4.9-7.5-8.6-16.3-11.4-25.8V295.2z M854.3,257.9c2.1,6.5,5,12.7,8.5,18.3
			c3.1-5.7,5.3-11.9,6.8-18.3H854.3z"/>
		<path class="st1" d="M955,266.7c5.3,5.5,12.8,10.4,20.1,13c-1.8,1.6-4.5,4.8-5.7,6.9c-9.2-4-18.3-11.6-24.2-19.9h-28.5
			c-2.3,3.3-5.3,6.7-8.4,9.6h17.5v-7.2h9v7.2h18.9v7.1h-18.9v8.5H967v7.4h-71.9v-7.4h30.8v-8.5h-18.2v-6.3
			c-4.8,4.3-10.3,7.9-15.8,10.5c-1.2-2.1-3.8-5.3-5.7-6.8c7.5-2.9,15.2-8.2,20.6-14.1h-19.7v-7.4h18.5v-29.5h-13.8v-7.3h13.8v-8.3
			h8.9v8.3H947v-8.2h9.1v8.2h13.7v7.3h-13.7v29.5h18v7.4H955z M914.5,229.9v5.3H947v-5.3H914.5z M914.5,247.1H947v-5.4h-32.5V247.1z
			 M914.5,259.4H947v-5.7h-32.5V259.4z"/>
		<path class="st1" d="M996.9,247.8c-1,8.3-3.6,17.3-10,23.8c-1.1-1.4-3.9-3.9-5.4-4.8c5.2-5.4,7.4-12.1,8.3-18.6l-7.1,0.4l-0.4-7
			l8-0.3c0-1,0-1.9,0-2.9v-17.4h10.5c1-2.4,2-5,2.6-7l7.7,1.1c-1,2.1-1.9,4.1-2.9,5.9h13.4V240l4.2-0.2l-0.2,6.5l-4,0.2V261
			c0,3.5-0.6,5.6-3,6.9c-2.5,1.1-6,1.1-11.2,1.1c-0.2-1.7-1-4.3-1.8-6.3h-3.4v-13.2h5.7v12.7c2.4,0.1,4.3,0.1,5.1,0
			c1,0,1.2-0.3,1.2-1.3v-13.9L996.9,247.8z M1058.1,291.9h11v7.2h-86.2v-7.2h10.9v-20.7h64.4V291.9z M997.4,241l16.9-0.8v-13.1
			h-16.9v11.4V241z M1005.5,228.8c1.9,2.8,3.9,6.6,4.8,9l-5.4,2.2c-0.9-2.5-2.9-6.4-4.6-9.4L1005.5,228.8z M1002.1,291.9h10.2V278
			h-10.2V291.9z M1020.4,278v13.9h10.4V278H1020.4z M1028.4,241.4c-1.1-1.6-3.2-3.8-4.5-4.8c6.6-3.7,7.6-8.3,7.6-12.5v-6.6h25.1
			v12.9c0,1.8,0.2,2,1.4,2h3.2c1.3,0,1.7-0.7,1.9-6.7c1.4,1.1,4.3,2,6.2,2.5c-0.7,8.3-2.6,10.5-7.1,10.5h-5.5
			c-5.6,0-7.4-1.8-7.4-8.2V224h-10.9v0.3c0,5.8-1.6,12.3-8.6,17.1h27l1.4-0.2l4.5,2c-2.4,6.5-6.2,11.6-10.9,15.6
			c5.1,2.2,11.2,3.7,17.9,4.5c-1.7,1.7-3.9,4.7-4.8,6.9c-7.6-1.2-14.4-3.5-20.1-6.7c-5.2,2.8-10.9,4.8-17.2,6.1
			c-0.8-1.8-2.9-5.2-4.3-6.5c5.4-1,10.4-2.3,14.8-4.2c-3.2-2.9-5.9-6.1-8-9.8l5.3-1.4h-7.8v-6.2H1028.4z M1037.8,247.6
			c1.8,2.9,4.4,5.3,7.5,7.4c3-2,5.5-4.5,7.4-7.4H1037.8z M1038.9,278v13.9h10.4V278H1038.9z"/>
		<path class="st1" d="M1078.8,219.1h33.8v8h-14.3c-1.4,7.3-3.2,14.3-5.5,21h18.4v42h-18.7v7.4h-7.4v-32.3c-1.4,2.4-2.9,4.6-4.5,6.6
			c-0.4-2.3-2.2-7.6-3.5-10c6.3-8.5,10.4-21.1,12.9-34.7h-11.1V219.1z M1103.5,256h-11.1v26.3h11.1V256z M1165.4,261.5h-10.3v40.4
			h-8.5v-40.4H1133c-0.5,14.3-3,30.2-13.3,40.9c-1.5-1.4-4.8-4-6.8-5.2c9.1-9.5,11.3-23.5,11.7-35.7h-9.8v-8.4h9.9v-25.6h-7.4v-8.3
			h46v8.3h-8.4v25.6h10.3V261.5z M1146.6,253.1v-25.6h-13.5v25.6H1146.6z"/>
		<path class="st1" d="M1248.4,292.5c2.4,0,2.8-1.6,3.2-13.8c1.9,1.6,5.9,3.2,8.4,3.8c-0.9,14.9-3.2,18.7-10.5,18.7h-9.3
			c-8.2,0-10.6-2.6-10.6-11.7v-17.2h-16c-2,11.2-9.7,22.9-35.3,29.9c-1.3-2.1-3.9-5.3-6-7.3c22.1-5.8,29.6-14.5,32-22.6H1179v-8.3
			h26.3v-11h8.9v11h24.7v25.4c0,2.8,0.5,3.2,2.8,3.2H1248.4z M1208.9,230.6c-2,15.2-7.7,24.1-30.4,28.7c-0.8-2.1-2.9-5.5-4.7-7.2
			c19.7-3.4,24.2-10,25.8-21.6h-15.2v10h-8.9v-18h35.7v-8.6h9.1v8.6h36.4v17.1h-9.4v-9.2h-16.8v15c0,2.5,0.5,2.8,3.6,2.8h10
			c2.5,0,3-0.9,3.2-6.9c1.8,1.3,5.4,2.7,7.8,3.1c-1,9.3-3.3,11.6-10,11.6h-12.2c-9.2,0-11.3-2.4-11.3-10.5v-15.1H1208.9z"/>
		<path class="st1" d="M1348,273c-2.8,5.7-6.4,10.7-11,15.1c2.4,4.1,5.2,6.3,8.2,6.3c2.6,0,3.5-2.1,4-10.1c1.5,1.6,4.2,3.2,5.9,3.9
			c-1.3,10.7-3.8,13.8-10.5,13.8c-5.5,0-9.9-3.2-13.5-8.9c-4.7,3.4-9.8,6.4-15.6,8.7c-1-1.5-3.2-4.3-4.8-5.7
			c6.5-2.4,12.2-5.5,17.1-9.5c-2-4.8-3.5-10.5-4.8-17h-13c-0.2,1.6-0.4,3.2-0.6,4.7c4.5,2.9,9.5,6.4,12.2,9l-4.7,6.1
			c-2-2-5.5-4.9-9.1-7.4c-2,8-5.7,14.9-12.5,19.9c-1.1-1.8-3.3-4.7-5.3-5.8c8.5-5.9,11-15.9,11.9-26.4h-6.4v-4.8l-3.2,4.6
			c-1.1-3-3.5-8.1-5.8-12.6v45.1h-8v-40.2c-2.6,8.8-5.7,17.1-9.2,22.5c-1-2.3-2.9-5.6-4.1-7.4c5.2-7.9,10-22.1,12.5-34.2h-10.5v-8.1
			h11.3v-20.1h8v20.1h9.5v8.1h-9.5v4.1c2.4,3.4,7.9,12.5,9.8,15.9h25.4c-2-13.9-2.8-30.5-2.9-48.1h7.8c-0.1,5.5,0,11,0.1,16.2
			l3.1-4.2c0.7,0.5,1.2,1,1.9,1.4c2-3.9,4.1-9.1,5.3-12.8l6.9,2.6c-2.7,4.7-5.5,10-7.8,13.8c1.2,1.2,2.5,2.4,3.3,3.5
			c2.1-3.6,4-7.2,5.4-10.2l6.3,3c-3.9,6.5-8.8,14.1-13.2,20.1l8.1-0.6c-0.7-1.6-1.3-3.2-2.1-4.7l5.2-2.1c2.5,4.5,4.9,10.2,5.4,13.9
			l-5.4,2.5c-0.2-1.1-0.6-2.5-1-3.8c-3.3,0.4-6.6,0.7-9.6,1.1c3.2,1.8,7,4.5,8.9,6.5l-2,1.9h7.6v7.1h-22.5c0.9,4.2,1.8,8,3,11.3
			c2.8-3.2,5-6.8,6.7-10.5L1348,273z M1298,249.4c2-2.6,4-5.6,6.1-8.9c-2.4-3-6.4-6.7-9.8-9.4l3.5-4.9c0.7,0.5,1.2,1,1.9,1.5
			c2-4.1,4-9.2,5.3-12.9l6.8,2.7c-2.6,4.7-5.3,10-7.7,13.8c1.2,1.1,2.4,2.4,3.3,3.4c2.1-3.6,4-7.2,5.4-10.2l6.3,3
			c-4.1,6.9-9.3,15-13.9,21.3l7.4-0.5c-0.6-1.8-1.3-3.6-2-5.3l5.2-1.8c2.3,4.4,4.4,10.3,4.9,13.9l-5.5,2.3c-0.1-1-0.4-2-0.7-3.2
			c-6.6,0.8-12.8,1.4-18.4,1.9l-1.2-6.8L1298,249.4z M1331.1,248.2c1.7-2.2,3.5-4.9,5.3-7.6c-2.3-2.8-5.9-6.3-9.3-9
			c0.3,11.5,1.1,21.9,2.5,30.8h10.8c-1.9-1.6-4.3-3.4-6.4-4.7l4-3.7l-8.6,1l-1.3-6.6L1331.1,248.2z"/>
		<path class="st1" d="M1388.6,271.6c-1.2-3.1-4-8.3-6.5-12.8v43h-8.2v-40.4c-2.9,9.1-6.4,17.5-10.2,22.9c-0.9-2.4-3-5.7-4.2-7.6
			c5.6-7.8,11.1-22,13.7-34.1h-11.7v-8.2h12.4v-20.1h8.2v20.1h10.2v8.2h-10.2v5.6c2.7,3.5,9.7,14.3,11.3,16.9L1388.6,271.6z
			 M1448.8,286.6h-5.6v6.3c0,4-0.9,6-3.6,7.4c-2.8,1.1-7.1,1.1-13.2,1.1c-0.4-2.1-1.4-5.2-2.4-7.2c4,0.2,8.1,0.2,9.4,0.1
			c1.1,0,1.5-0.4,1.5-1.5v-6.2H1405v14.8h-8.1v-14.8h-6.1v-6.7h6.1V256h18.7v-4.7h-23.2v-6.6h12.5v-5.3h-8.4v-6.2h8.4v-5.3h-10.4
			v-6.4h10.4v-7.4h8.3v7.4h13.1v-7.4h8.3v7.4h11.4v6.4h-11.4v5.3h9.9v6.2h-9.9v5.3h13.3v6.6h-24.3v4.7h19.6v23.9h5.6V286.6z
			 M1405,262.4v5.4h10.6v-5.4H1405z M1405,279.9h10.6V274H1405V279.9z M1413.2,233.2h13.1v-5.3h-13.1V233.2z M1413.2,244.8h13.1
			v-5.3h-13.1V244.8z M1423.6,262.4v5.4h11.3v-5.4H1423.6z M1434.9,279.9V274h-11.3v5.9H1434.9z"/>
		<path class="st1" d="M538.3,367.2h-16v25.4h-10.5V336h10.5v22.8h16V336h10.4v56.6h-10.4V367.2z"/>
		<path class="st1" d="M588.3,392.5h-8.8l-0.5-5.6c-2.7,4.5-6.1,6.9-11.1,6.9c-6.6,0-10.6-5-10.6-12.4v-32.1h10.1v31.4
			c0,3.7,1.3,5.5,3.9,5.5c3,0,5.2-2.5,7-5.9v-31h10.1V392.5z"/>
		<path class="st1" d="M646.9,361.2v31.3H637v-30.2c0-5.1-1.4-6.6-3.6-6.6c-2.6,0-4.7,2.4-6.7,6.1v30.7h-9.8v-30.2
			c0-5.1-1.5-6.6-3.6-6.6c-2.7,0-4.8,2.4-6.7,6.1v30.7h-9.9v-43.3h8.8l0.7,5.6c2.7-4.2,6.1-6.9,10.7-6.9c4.4,0,7.6,2.7,9.1,7.3
			c2.8-4.4,6.2-7.3,11-7.3C642.9,348,646.9,353,646.9,361.2z"/>
		<path class="st1" d="M686.4,386.9l-2,6.7c-4.3-0.5-7.2-2-8.6-6.1c-2.8,4.5-6.8,6.3-11.1,6.3c-7.5,0-12.2-5.4-12.2-13.3
			c0-9.3,6.1-14.4,17.6-14.4h3.8v-2.9c0-5.6-2-7.6-6.5-7.6c-3,0-6.2,0.8-10,2.2l-2.3-6.6c4.7-2,9.7-3.1,14-3.1
			c10.1,0,14.7,5.2,14.7,14.6v19.3C683.8,385,684.6,386.1,686.4,386.9z M673.9,381.1V372H671c-5.8,0-8.5,2.5-8.5,7.7
			c0,4.5,1.8,6.8,4.9,6.8C670.2,386.5,672.4,384.5,673.9,381.1z"/>
		<path class="st1" d="M723.7,361.2v31.3h-10.1v-30.1c0-5.1-1.4-6.6-3.8-6.6c-2.9,0-5.2,2.5-7.4,6.5v30.3h-10.1v-43.3h8.8l0.8,5.7
			c2.8-4.3,6.2-7,11.2-7C719.8,348,723.7,352.9,723.7,361.2z"/>
		<path class="st1" d="M730.9,362.9h21.9v8h-21.9V362.9z"/>
		<path class="st1" d="M759.9,383.5v-51.6l10.1-1.1v52.3c0,1.6,0.7,2.5,2.1,2.5c0.7,0,1.4-0.2,1.9-0.4l2,7c-1.6,0.8-3.8,1.6-6.3,1.6
			C763.7,393.8,759.9,389.8,759.9,383.5z"/>
		<path class="st1" d="M791.6,333.7c0,3.5-2.5,6.1-6.1,6.1c-3.6,0-6.1-2.6-6.1-6.1c0-3.4,2.5-6.1,6.1-6.1
			C789.1,327.5,791.6,330.2,791.6,333.7z M790.5,392.5h-10.1v-43.3h10.1V392.5z"/>
		<path class="st1" d="M810.9,343.7v5.6h8.9l-1.1,7.3h-7.8v36h-10.1v-36H795v-7.3h5.8v-5.3c0-7.7,4.6-13.1,13.6-13.1
			c3.9,0,7,1,10,2.5l-2.8,6.6c-2.2-1-4.2-1.4-6-1.4C812.3,338.5,810.9,340.1,810.9,343.7z"/>
		<path class="st1" d="M854.6,374h-23.4c0.6,9.3,3.8,12,8.6,12c3.5,0,6.2-1.1,9.4-3.6l4.2,5.6c-3.6,3.4-8.3,5.7-14.2,5.7
			c-11.8,0-18.2-8.4-18.2-22.5c0-13.9,6.1-23.2,17.2-23.2c10.4,0,16.6,7.4,16.6,21.9C854.8,371.2,854.7,372.9,854.6,374z M845,366.9
			c0-8-2-11.8-6.8-11.8c-4.1,0-6.6,2.9-7,12.4H845V366.9z"/>
		<path class="st1" d="M890.3,392.5h-10.5V336h10.5V392.5z"/>
		<path class="st1" d="M930.2,361.2v31.3h-10.1v-30.1c0-5.1-1.4-6.6-3.8-6.6c-2.9,0-5.2,2.5-7.4,6.5v30.3h-10.1v-43.3h8.8l0.8,5.7
			c2.8-4.3,6.2-7,11.2-7C926.3,348,930.2,352.9,930.2,361.2z"/>
		<path class="st1" d="M950.4,343.7v5.6h8.9l-1.1,7.3h-7.8v36h-10.1v-36h-5.8v-7.3h5.8v-5.3c0-7.7,4.6-13.1,13.6-13.1
			c3.9,0,7,1,10,2.5l-2.8,6.6c-2.2-1-4.2-1.4-6-1.4C951.7,338.5,950.4,340.1,950.4,343.7z"/>
		<path class="st1" d="M996.3,370.8c0,14.2-6.7,22.9-17.8,22.9c-11.2,0-17.9-8.1-17.9-22.9c0-14.6,6.7-22.8,17.9-22.8
			C989.5,348,996.3,355.8,996.3,370.8z M971,370.8c0,11.1,2.5,15.2,7.4,15.2c4.9,0,7.4-4.2,7.4-15.2c0-11-2.5-15.1-7.4-15.1
			C973.5,355.7,971,359.9,971,370.8z"/>
		<path class="st1" d="M1025.9,348.7l-1.7,9.7c-1.1-0.3-1.9-0.5-3.2-0.5c-4.5,0-6.7,3.9-8.1,10.6v24h-10.1v-43.3h8.8l0.8,7.7
			c2-5.7,5.3-8.8,9.9-8.8C1023.7,348.1,1024.8,348.3,1025.9,348.7z"/>
		<path class="st1" d="M1080.4,361.2v31.3h-9.9v-30.2c0-5.1-1.4-6.6-3.6-6.6c-2.6,0-4.7,2.4-6.7,6.1v30.7h-9.8v-30.2
			c0-5.1-1.5-6.6-3.6-6.6c-2.7,0-4.8,2.4-6.7,6.1v30.7h-9.9v-43.3h8.8l0.7,5.6c2.7-4.2,6.1-6.9,10.7-6.9c4.4,0,7.6,2.7,9.1,7.3
			c2.8-4.4,6.2-7.3,11-7.3C1076.4,348,1080.4,353,1080.4,361.2z"/>
		<path class="st1" d="M1119.9,386.9l-2,6.7c-4.3-0.5-7.2-2-8.6-6.1c-2.8,4.5-6.8,6.3-11.1,6.3c-7.5,0-12.2-5.4-12.2-13.3
			c0-9.3,6.1-14.4,17.6-14.4h3.8v-2.9c0-5.6-2-7.6-6.5-7.6c-3,0-6.2,0.8-10,2.2l-2.3-6.6c4.7-2,9.7-3.1,14-3.1
			c10.1,0,14.7,5.2,14.7,14.6v19.3C1117.3,385,1118.1,386.1,1119.9,386.9z M1107.4,381.1V372h-2.9c-5.8,0-8.5,2.5-8.5,7.7
			c0,4.5,1.8,6.8,4.9,6.8C1103.7,386.5,1105.9,384.5,1107.4,381.1z"/>
		<path class="st1" d="M1148.5,390.6c-2.8,2.1-6.4,3.2-9.7,3.2c-7.9,0-11.8-4.9-11.8-12.4v-24.8h-5.5v-7.3h5.5v-9.6l10.1-1.2v10.8
			h8.6l-1,7.3h-7.6v24.7c0,2.9,1.1,4.4,3.8,4.4c1.5,0,2.6-0.5,4.2-1.3L1148.5,390.6z"/>
		<path class="st1" d="M1163.7,333.7c0,3.5-2.5,6.1-6.1,6.1c-3.6,0-6.1-2.6-6.1-6.1c0-3.4,2.5-6.1,6.1-6.1
			C1161.2,327.5,1163.7,330.2,1163.7,333.7z M1162.6,392.5h-10.1v-43.3h10.1V392.5z"/>
		<path class="st1" d="M1204.7,370.8c0,14.2-6.7,22.9-17.8,22.9c-11.2,0-17.9-8.1-17.9-22.9c0-14.6,6.7-22.8,17.9-22.8
			C1198,348,1204.7,355.8,1204.7,370.8z M1179.4,370.8c0,11.1,2.5,15.2,7.4,15.2s7.4-4.2,7.4-15.2c0-11-2.5-15.1-7.4-15.1
			S1179.4,359.9,1179.4,370.8z"/>
		<path class="st1" d="M1242.6,361.2v31.3h-10.1v-30.1c0-5.1-1.4-6.6-3.8-6.6c-2.9,0-5.2,2.5-7.4,6.5v30.3h-10.1v-43.3h8.8l0.8,5.7
			c2.8-4.3,6.2-7,11.2-7C1238.7,348,1242.6,352.9,1242.6,361.2z"/>
		<path class="st1" d="M1305,353.9c0,12.8-8,18.7-20.6,18.7h-4v19.9h-10.5V336h13.8C1297.5,336,1305,342,1305,353.9z M1294.2,354
			c0-7.2-3.3-10.3-10.3-10.3h-3.5v21.2h3.4C1290.7,364.9,1294.2,362.2,1294.2,354z"/>
		<path class="st1" d="M1309.7,383.5v-51.6l10.1-1.1v52.3c0,1.6,0.7,2.5,2.1,2.5c0.7,0,1.4-0.2,1.9-0.4l2,7
			c-1.6,0.8-3.8,1.6-6.3,1.6C1313.5,393.8,1309.7,389.8,1309.7,383.5z"/>
		<path class="st1" d="M1361.8,386.9l-2,6.7c-4.3-0.5-7.2-2-8.6-6.1c-2.8,4.5-6.8,6.3-11.1,6.3c-7.5,0-12.2-5.4-12.2-13.3
			c0-9.3,6.1-14.4,17.6-14.4h3.8v-2.9c0-5.6-2-7.6-6.5-7.6c-3,0-6.2,0.8-10,2.2l-2.3-6.6c4.7-2,9.7-3.1,14-3.1
			c10.1,0,14.7,5.2,14.7,14.6v19.3C1359.1,385,1360,386.1,1361.8,386.9z M1349.2,381.1V372h-2.9c-5.8,0-8.5,2.5-8.5,7.7
			c0,4.5,1.8,6.8,4.9,6.8C1345.6,386.5,1347.8,384.5,1349.2,381.1z"/>
		<path class="st1" d="M1390.4,390.6c-2.8,2.1-6.4,3.2-9.7,3.2c-7.9,0-11.8-4.9-11.8-12.4v-24.8h-5.5v-7.3h5.5v-9.6l10.1-1.2v10.8
			h8.6l-1,7.3h-7.6v24.7c0,2.9,1.1,4.4,3.8,4.4c1.5,0,2.6-0.5,4.2-1.3L1390.4,390.6z"/>
		<path class="st1" d="M1406.6,343.7v5.6h8.9l-1.1,7.3h-7.8v36h-10.1v-36h-5.8v-7.3h5.8v-5.3c0-7.7,4.6-13.1,13.6-13.1
			c3.9,0,7,1,10,2.5l-2.8,6.6c-2.2-1-4.2-1.4-6-1.4C1408,338.5,1406.6,340.1,1406.6,343.7z"/>
		<path class="st1" d="M1452.5,370.8c0,14.2-6.7,22.9-17.8,22.9c-11.2,0-17.9-8.1-17.9-22.9c0-14.6,6.7-22.8,17.9-22.8
			C1445.8,348,1452.5,355.8,1452.5,370.8z M1427.2,370.8c0,11.1,2.5,15.2,7.4,15.2s7.4-4.2,7.4-15.2c0-11-2.5-15.1-7.4-15.1
			S1427.2,359.9,1427.2,370.8z"/>
		<path class="st1" d="M1482.2,348.7l-1.7,9.7c-1.1-0.3-1.9-0.5-3.2-0.5c-4.5,0-6.7,3.9-8.1,10.6v24h-10.1v-43.3h8.8l0.8,7.7
			c2-5.7,5.3-8.8,9.9-8.8C1480,348.1,1481.1,348.3,1482.2,348.7z"/>
		<path class="st1" d="M1536.7,361.2v31.3h-9.9v-30.2c0-5.1-1.4-6.6-3.6-6.6c-2.6,0-4.7,2.4-6.7,6.1v30.7h-9.8v-30.2
			c0-5.1-1.5-6.6-3.6-6.6c-2.7,0-4.8,2.4-6.7,6.1v30.7h-9.9v-43.3h8.8l0.7,5.6c2.7-4.2,6.1-6.9,10.7-6.9c4.4,0,7.6,2.7,9.1,7.3
			c2.8-4.4,6.2-7.3,11-7.3C1532.7,348,1536.7,353,1536.7,361.2z"/>
		<path class="st1" d="M1571.4,353.2l-3.8,5.6c-3-2.1-5.9-3.4-9.1-3.4c-3.4,0-5.4,1.8-5.4,4.7c0,2.9,1.6,4.3,7.9,6.6
			c7.4,2.7,11.6,6.2,11.6,13.3c0,8.8-7.2,13.7-16.2,13.7c-6.4,0-11.5-2.5-15.1-6.1l4.9-5.5c2.9,2.5,6.2,4.1,9.9,4.1
			c3.8,0,6.2-2,6.2-5.4c0-3.6-1.6-5.2-8.3-7.5c-7.9-2.9-11-6.6-11-12.7c0-7.2,5.7-12.7,14.8-12.7
			C1563.3,348,1567.8,350,1571.4,353.2z"/>
		<path class="st1" d="M1607.3,392.5h-10.5V336h10.5V392.5z"/>
		<path class="st1" d="M1647.3,361.2v31.3h-10.1v-30.1c0-5.1-1.4-6.6-3.8-6.6c-2.9,0-5.2,2.5-7.4,6.5v30.3h-10.1v-43.3h8.8l0.8,5.7
			c2.8-4.3,6.2-7,11.2-7C1643.3,348,1647.3,352.9,1647.3,361.2z"/>
		<path class="st1" d="M1681.9,353.2l-3.8,5.6c-3-2.1-5.9-3.4-9.1-3.4c-3.4,0-5.4,1.8-5.4,4.7c0,2.9,1.6,4.3,7.9,6.6
			c7.4,2.7,11.6,6.2,11.6,13.3c0,8.8-7.2,13.7-16.2,13.7c-6.4,0-11.5-2.5-15.1-6.1l4.9-5.5c2.9,2.5,6.2,4.1,9.9,4.1
			c3.8,0,6.2-2,6.2-5.4c0-3.6-1.6-5.2-8.3-7.5c-7.9-2.9-11-6.6-11-12.7c0-7.2,5.7-12.7,14.8-12.7
			C1673.9,348,1678.4,350,1681.9,353.2z"/>
		<path class="st1" d="M1712.4,390.6c-2.8,2.1-6.4,3.2-9.7,3.2c-7.9,0-11.8-4.9-11.8-12.4v-24.8h-5.5v-7.3h5.5v-9.6l10.1-1.2v10.8
			h8.6l-1,7.3h-7.6v24.7c0,2.9,1.1,4.4,3.8,4.4c1.5,0,2.6-0.5,4.2-1.3L1712.4,390.6z"/>
		<path class="st1" d="M1727.5,333.7c0,3.5-2.5,6.1-6.1,6.1c-3.6,0-6.1-2.6-6.1-6.1c0-3.4,2.5-6.1,6.1-6.1
			C1725.1,327.5,1727.5,330.2,1727.5,333.7z M1726.5,392.5h-10.1v-43.3h10.1V392.5z"/>
		<path class="st1" d="M1757.9,390.6c-2.8,2.1-6.4,3.2-9.7,3.2c-7.9,0-11.8-4.9-11.8-12.4v-24.8h-5.5v-7.3h5.5v-9.6l10.1-1.2v10.8
			h8.6l-1,7.3h-7.6v24.7c0,2.9,1.1,4.4,3.8,4.4c1.5,0,2.6-0.5,4.2-1.3L1757.9,390.6z"/>
		<path class="st1" d="M1791.8,392.5h-8.8l-0.5-5.6c-2.7,4.5-6.1,6.9-11.1,6.9c-6.6,0-10.6-5-10.6-12.4v-32.1h10.1v31.4
			c0,3.7,1.3,5.5,3.9,5.5c3,0,5.2-2.5,7-5.9v-31h10.1V392.5z"/>
		<path class="st1" d="M1823.3,390.6c-2.8,2.1-6.4,3.2-9.7,3.2c-7.9,0-11.8-4.9-11.8-12.4v-24.8h-5.5v-7.3h5.5v-9.6l10.1-1.2v10.8
			h8.6l-1,7.3h-7.6v24.7c0,2.9,1.1,4.4,3.8,4.4c1.5,0,2.6-0.5,4.2-1.3L1823.3,390.6z"/>
		<path class="st1" d="M1857.2,374h-23.4c0.6,9.3,3.8,12,8.6,12c3.5,0,6.2-1.1,9.4-3.6l4.2,5.6c-3.6,3.4-8.3,5.7-14.2,5.7
			c-11.8,0-18.2-8.4-18.2-22.5c0-13.9,6.1-23.2,17.2-23.2c10.4,0,16.6,7.4,16.6,21.9C1857.4,371.2,1857.3,372.9,1857.2,374z
			 M1847.6,366.9c0-8-2-11.8-6.8-11.8c-4.1,0-6.6,2.9-7,12.4h13.8V366.9z"/>
	</g>
	<path class="st1" d="M857.1,257.9"/>
</g>
<g>
</g>
<g>
</g>
<g>
</g>
<g>
</g>
<g>
</g>
<g>
</g>
<g>
</g>
<g>
</g>
<g>
</g>
<g>
</g>
<g>
</g>
<g>
</g>
<g>
</g>
<g>
</g>
<g>
</g>
</svg>
